<svg xmlns="http://www.w3.org/2000/svg" viewBox="0 0 24 24" fill="#FFD700" width="40" height="40">
  <path d="M20.451 20.451h-3.554v-5.585c0-1.335-.026-3.056-1.863-3.056-1.865 0-2.15 1.455-2.15 2.96v5.681h-3.553V9h3.415v1.561h.049c.476-.902 1.637-1.855 3.367-1.855 3.603 0 4.268 2.37 4.268 5.454v6.291ZM5.337 7.433a2.063 2.063 0 1 1 0-4.126 2.063 2.063 0 0 1 0 4.126Zm1.777 13.018H3.56V9h3.554v11.451ZM22.225 0H1.771A1.772 1.772 0 0 0 0 1.771v20.453A1.772 1.772 0 0 0 1.771 24h20.453A1.772 1.772 0 0 0 24 22.225V1.771A1.772 1.772 0 0 0 22.225 0Z"/>
</svg>
