<svg xmlns="http://www.w3.org/2000/svg" viewBox="0 0 24 24" fill="#f2bb33" width="40" height="40">
  <path d="M23.643 4.937a9.4 9.4 0 0 1-2.823.818 4.932 4.932 0 0 0 2.165-2.723 9.847 9.847 0 0 1-3.127 1.221A4.92 4.92 0 0 0 16.616 3c-2.724 0-4.933 2.21-4.933 4.933 0 .39.042.772.123 1.138-4.097-.205-7.728-2.168-10.155-5.148a4.866 4.866 0 0 0-.666 2.48c0 1.71.87 3.22 2.188 4.103a4.903 4.903 0 0 1-2.233-.622v.062c0 2.39 1.7 4.386 3.946 4.84a4.924 4.924 0 0 1-2.224.085c.63 1.95 2.457 3.374 4.62 3.415A9.86 9.86 0 0 1 0 20.1a13.918 13.918 0 0 0 7.548 2.212c9.054 0 14.002-7.496 14.002-13.99 0-.21-.005-.423-.014-.634a9.936 9.936 0 0 0 2.45-2.55Z"/>
</svg>
